<mxfile host="app.diagrams.net" modified="2022-07-29T04:01:17.567Z" agent="5.0 (Windows NT 10.0; Win64; x64) AppleWebKit/537.36 (KHTML, like Gecko) Chrome/103.0.5060.134 Safari/537.36" etag="ZDm4kZwc6NuSdGKkTcqg" version="20.2.0" type="github">
  <diagram id="w9YVwRuN9vMRWFFjWp83" name="Page-1">
    <mxGraphModel dx="2234" dy="1349" grid="1" gridSize="10" guides="1" tooltips="1" connect="1" arrows="1" fold="1" page="1" pageScale="1" pageWidth="3300" pageHeight="2339" background="#283618" math="0" shadow="0">
      <root>
        <mxCell id="0" />
        <mxCell id="1" parent="0" />
        <mxCell id="Vurvy3Mwkugeq3pFuwPJ-9" style="edgeStyle=orthogonalEdgeStyle;rounded=1;orthogonalLoop=1;jettySize=auto;html=1;exitX=1;exitY=0.5;exitDx=0;exitDy=0;entryX=0;entryY=0.5;entryDx=0;entryDy=0;fontFamily=Tahoma;fontSize=19;fontColor=#FEFAE0;strokeColor=#DDA15E;fillColor=#BC6C25;strokeWidth=5;" parent="1" source="Vurvy3Mwkugeq3pFuwPJ-1" target="Vurvy3Mwkugeq3pFuwPJ-3" edge="1">
          <mxGeometry relative="1" as="geometry" />
        </mxCell>
        <mxCell id="Vurvy3Mwkugeq3pFuwPJ-10" style="edgeStyle=orthogonalEdgeStyle;rounded=1;orthogonalLoop=1;jettySize=auto;html=1;exitX=1;exitY=0.5;exitDx=0;exitDy=0;entryX=0;entryY=0.5;entryDx=0;entryDy=0;fontFamily=Tahoma;fontSize=19;fontColor=#FEFAE0;strokeColor=#DDA15E;fillColor=#BC6C25;strokeWidth=5;" parent="1" source="Vurvy3Mwkugeq3pFuwPJ-1" target="Vurvy3Mwkugeq3pFuwPJ-5" edge="1">
          <mxGeometry relative="1" as="geometry" />
        </mxCell>
        <mxCell id="Vurvy3Mwkugeq3pFuwPJ-11" style="edgeStyle=orthogonalEdgeStyle;rounded=1;orthogonalLoop=1;jettySize=auto;html=1;exitX=1;exitY=0.5;exitDx=0;exitDy=0;entryX=0;entryY=0.5;entryDx=0;entryDy=0;fontFamily=Tahoma;fontSize=19;fontColor=#FEFAE0;strokeColor=#DDA15E;fillColor=#BC6C25;strokeWidth=5;" parent="1" source="Vurvy3Mwkugeq3pFuwPJ-1" target="Vurvy3Mwkugeq3pFuwPJ-7" edge="1">
          <mxGeometry relative="1" as="geometry" />
        </mxCell>
        <mxCell id="Vurvy3Mwkugeq3pFuwPJ-1" value="" style="rounded=1;whiteSpace=wrap;html=1;fontColor=#FEFAE0;strokeColor=#DDA15E;fillColor=#BC6C25;" parent="1" vertex="1">
          <mxGeometry x="280" y="1050" width="150" height="70" as="geometry" />
        </mxCell>
        <mxCell id="Vurvy3Mwkugeq3pFuwPJ-2" value="&lt;font style=&quot;font-size: 19px;&quot; face=&quot;Tahoma&quot;&gt;&lt;b&gt;STAMPING&lt;/b&gt;&lt;/font&gt;" style="text;html=1;strokeColor=none;fillColor=none;align=center;verticalAlign=middle;whiteSpace=wrap;rounded=0;fontColor=#FEFAE0;" parent="1" vertex="1">
          <mxGeometry x="287.5" y="1070" width="135" height="30" as="geometry" />
        </mxCell>
        <mxCell id="Vurvy3Mwkugeq3pFuwPJ-15" style="edgeStyle=orthogonalEdgeStyle;rounded=1;orthogonalLoop=1;jettySize=auto;html=1;exitX=1;exitY=0.5;exitDx=0;exitDy=0;entryX=0;entryY=0.5;entryDx=0;entryDy=0;fontFamily=Tahoma;fontSize=21;fontColor=#FEFAE0;strokeColor=#DDA15E;strokeWidth=5;fillColor=#BC6C25;" parent="1" source="Vurvy3Mwkugeq3pFuwPJ-3" target="Vurvy3Mwkugeq3pFuwPJ-12" edge="1">
          <mxGeometry relative="1" as="geometry" />
        </mxCell>
        <mxCell id="Vurvy3Mwkugeq3pFuwPJ-3" value="" style="rounded=1;whiteSpace=wrap;html=1;fontColor=#FEFAE0;strokeColor=#DDA15E;fillColor=#BC6C25;" parent="1" vertex="1">
          <mxGeometry x="520" y="920" width="150" height="70" as="geometry" />
        </mxCell>
        <mxCell id="Vurvy3Mwkugeq3pFuwPJ-4" value="&lt;font face=&quot;Tahoma&quot;&gt;&lt;span style=&quot;font-size: 19px;&quot;&gt;&lt;b&gt;UNWINDING&lt;/b&gt;&lt;/span&gt;&lt;/font&gt;" style="text;html=1;strokeColor=none;fillColor=none;align=center;verticalAlign=middle;whiteSpace=wrap;rounded=0;fontColor=#FEFAE0;" parent="1" vertex="1">
          <mxGeometry x="527.5" y="940" width="135" height="30" as="geometry" />
        </mxCell>
        <mxCell id="bKtYVYal6Ob3jZ1PaWuT-1" style="edgeStyle=orthogonalEdgeStyle;orthogonalLoop=1;jettySize=auto;html=1;exitX=1;exitY=0.5;exitDx=0;exitDy=0;entryX=0;entryY=0.5;entryDx=0;entryDy=0;strokeColor=#DDA15E;rounded=1;strokeWidth=5;" edge="1" parent="1" source="Vurvy3Mwkugeq3pFuwPJ-5" target="Vurvy3Mwkugeq3pFuwPJ-16">
          <mxGeometry relative="1" as="geometry" />
        </mxCell>
        <mxCell id="Vurvy3Mwkugeq3pFuwPJ-5" value="" style="rounded=1;whiteSpace=wrap;html=1;fontColor=#FEFAE0;strokeColor=#DDA15E;fillColor=#BC6C25;" parent="1" vertex="1">
          <mxGeometry x="520" y="1050" width="150" height="70" as="geometry" />
        </mxCell>
        <mxCell id="Vurvy3Mwkugeq3pFuwPJ-6" value="&lt;font face=&quot;Tahoma&quot;&gt;&lt;span style=&quot;font-size: 19px;&quot;&gt;&lt;b&gt;BLANKING&lt;/b&gt;&lt;/span&gt;&lt;/font&gt;" style="text;html=1;strokeColor=none;fillColor=none;align=center;verticalAlign=middle;whiteSpace=wrap;rounded=0;fontColor=#FEFAE0;" parent="1" vertex="1">
          <mxGeometry x="527.5" y="1070" width="135" height="30" as="geometry" />
        </mxCell>
        <mxCell id="bKtYVYal6Ob3jZ1PaWuT-18" style="edgeStyle=orthogonalEdgeStyle;rounded=1;orthogonalLoop=1;jettySize=auto;html=1;exitX=1;exitY=0.5;exitDx=0;exitDy=0;entryX=0;entryY=0.5;entryDx=0;entryDy=0;fontColor=#000000;strokeColor=#DDA15E;strokeWidth=5;" edge="1" parent="1" source="Vurvy3Mwkugeq3pFuwPJ-7" target="bKtYVYal6Ob3jZ1PaWuT-16">
          <mxGeometry relative="1" as="geometry" />
        </mxCell>
        <mxCell id="bKtYVYal6Ob3jZ1PaWuT-21" style="edgeStyle=orthogonalEdgeStyle;rounded=1;orthogonalLoop=1;jettySize=auto;html=1;exitX=1;exitY=0.5;exitDx=0;exitDy=0;entryX=0;entryY=0.5;entryDx=0;entryDy=0;fontColor=#000000;strokeColor=#DDA15E;strokeWidth=5;" edge="1" parent="1" source="Vurvy3Mwkugeq3pFuwPJ-7" target="bKtYVYal6Ob3jZ1PaWuT-19">
          <mxGeometry relative="1" as="geometry" />
        </mxCell>
        <mxCell id="Vurvy3Mwkugeq3pFuwPJ-7" value="" style="rounded=1;whiteSpace=wrap;html=1;fontColor=#FEFAE0;strokeColor=#DDA15E;fillColor=#BC6C25;" parent="1" vertex="1">
          <mxGeometry x="520" y="1180" width="150" height="70" as="geometry" />
        </mxCell>
        <mxCell id="Vurvy3Mwkugeq3pFuwPJ-8" value="&lt;font face=&quot;Tahoma&quot;&gt;&lt;span style=&quot;font-size: 19px;&quot;&gt;&lt;b&gt;PRESS&lt;/b&gt;&lt;/span&gt;&lt;/font&gt;" style="text;html=1;strokeColor=none;fillColor=none;align=center;verticalAlign=middle;whiteSpace=wrap;rounded=0;fontColor=#FEFAE0;" parent="1" vertex="1">
          <mxGeometry x="527.5" y="1200" width="135" height="30" as="geometry" />
        </mxCell>
        <mxCell id="bKtYVYal6Ob3jZ1PaWuT-11" style="edgeStyle=orthogonalEdgeStyle;rounded=1;orthogonalLoop=1;jettySize=auto;html=1;exitX=1;exitY=0.5;exitDx=0;exitDy=0;strokeColor=#DDA15E;strokeWidth=5;" edge="1" parent="1" source="Vurvy3Mwkugeq3pFuwPJ-12" target="bKtYVYal6Ob3jZ1PaWuT-10">
          <mxGeometry relative="1" as="geometry" />
        </mxCell>
        <mxCell id="Vurvy3Mwkugeq3pFuwPJ-12" value="" style="rounded=1;whiteSpace=wrap;html=1;fontFamily=Tahoma;fontSize=19;fontColor=#FEFAE0;strokeColor=#DDA15E;fillColor=#BC6C25;arcSize=7;" parent="1" vertex="1">
          <mxGeometry x="910" y="560" width="610" height="350" as="geometry" />
        </mxCell>
        <mxCell id="Vurvy3Mwkugeq3pFuwPJ-14" value="The cold rolled sheet metal with a specific range of inner dia is picked up and placed on the mandrill in order to unwind the coil into flat sheets before blanking operation is done.&amp;nbsp;&lt;br&gt;&lt;b&gt;Inner dia ranges from : 508 - 610mm.&lt;/b&gt;&amp;nbsp;&lt;br&gt;&lt;br&gt;The unwound sheet is first rolled with help of two high roll mill and the &lt;b&gt;water washed &lt;/b&gt;in-order to remove some unwanted particles on the surface of the sheet.&amp;nbsp;&lt;br&gt;&lt;br&gt;Latter the sheet will traverse in the form of bow called &lt;b&gt;Bow Movement&lt;/b&gt; in order to remove the internal tensions that got built up on the sheet metal.&amp;nbsp;" style="text;html=1;strokeColor=none;fillColor=none;align=left;verticalAlign=middle;whiteSpace=wrap;rounded=0;fontFamily=Tahoma;fontSize=21;fontColor=#FEFAE0;" parent="1" vertex="1">
          <mxGeometry x="930" y="579.46" width="570" height="311.09" as="geometry" />
        </mxCell>
        <mxCell id="bKtYVYal6Ob3jZ1PaWuT-12" style="edgeStyle=orthogonalEdgeStyle;rounded=1;orthogonalLoop=1;jettySize=auto;html=1;exitX=1;exitY=0.5;exitDx=0;exitDy=0;entryX=0;entryY=0.5;entryDx=0;entryDy=0;strokeColor=#DDA15E;strokeWidth=5;" edge="1" parent="1" source="Vurvy3Mwkugeq3pFuwPJ-16" target="bKtYVYal6Ob3jZ1PaWuT-10">
          <mxGeometry relative="1" as="geometry" />
        </mxCell>
        <mxCell id="Vurvy3Mwkugeq3pFuwPJ-16" value="" style="rounded=1;whiteSpace=wrap;html=1;fontFamily=Tahoma;fontSize=19;fontColor=#FEFAE0;strokeColor=#DDA15E;fillColor=#BC6C25;arcSize=7;" parent="1" vertex="1">
          <mxGeometry x="920" y="1020" width="610" height="130" as="geometry" />
        </mxCell>
        <mxCell id="Vurvy3Mwkugeq3pFuwPJ-17" value="During the blanking process the sheet which got un-wound will be cut into blanks with a required profile using the profile die.&amp;nbsp;" style="text;html=1;strokeColor=none;fillColor=none;align=left;verticalAlign=middle;whiteSpace=wrap;rounded=0;fontFamily=Tahoma;fontSize=21;fontColor=#FEFAE0;" parent="1" vertex="1">
          <mxGeometry x="940" y="1040" width="570" height="90" as="geometry" />
        </mxCell>
        <mxCell id="bKtYVYal6Ob3jZ1PaWuT-10" value="" style="rounded=1;whiteSpace=wrap;html=1;strokeWidth=0;arcSize=9;" vertex="1" parent="1">
          <mxGeometry x="1700" y="810" width="410" height="240" as="geometry" />
        </mxCell>
        <mxCell id="bKtYVYal6Ob3jZ1PaWuT-13" value="" style="shape=image;verticalLabelPosition=bottom;labelBackgroundColor=default;verticalAlign=top;aspect=fixed;imageAspect=0;image=data:image/png,iVBORw0KGgoAAAANSUhEUgAAAQQAAABzCAYAAAB+WHzHAAAU3ElEQVR4nO3dd3hTZd8H8O85GW2a7lJW2aPIHiJbkO14ECijyoOKDAHFAbygDBnq++AEBEFBUAQBWcILiBRBliCz7FlKWS3Q3dKkzTzvH7V5oDRtkvsk56T5fa7L65Imue+7afI9416cIAgCCCEEAC91A4h3EsxmmFNTpW4GERkFAnGOVYDxagJudn4Gqe9Pkbo1RGRKqRtAvEfBmTNIGTUalowMQBCgbtBA6iYRkVEgkDLp9u5F+qefw5iQIHVTiJtRIBC78nbsQOaS72E4d07qphAPoUAgj7JYkBcXh8zvlsBw/oLUrSEeRoFAAACCwQD9gYNI/+ILGK8lSt0cIhEKBB8nFBQg/9gx3J8+A+Y7d6RuDpEYBYKPEsxm5B8/jnvj3oElK0vq5hCZoEDwQbq9e3F/wv/AkpsL0EBV8hAKBB+Su2kTMhcshOk2XRqQklEg+ICcNWuR/eMKGBPpZiEpHQVCeWWxIGf9BmQtWQrTrVtSt4Z4CQqEcsaq10O36w+kz/kU5rQ0qZtDvAwFQjlh1emg27sPaTNmwpKdLXVziJeiQPBygtEI3a5duP/BVFj1eqmbQ7wcBYIXM6em4mb3nrDqdFI3hZQTFAhezHQ9SbIwCOrXFxUmT5KkbuI+FAjEcTyP4NjBCHt9GNT16kndGuIGFAikTJxajeCY/ggdMRzqunWlbg5xIwoEL2VKuuH2OniNBoHPPYfwd96GqkZ1t9dHpEeB4KWylv+AnDVr3FI2p9FA27UrKn48G4qwMLfUQeSJAoHYcH5+0HbpjCqLFwE8rb/riygQCAAgeNAgVPx4Nji1WuqmEAlRIPi4sJEjETpqBJSRkVI3hcgABYIP4hQKhI0dg5DYWCijqkrdHCIjLgXCsk1HkP0gX+y2AAB4nodCwSNQo0aQ1g+R4YGoHBGE2lHh8PdTuaVOX8FrtQj5978ROuw1KCtXkro5RIZcCoRV207iRkqm2G0pFccBdapFoE3TGujYojZaN6mOKhWCPdoGb6UIDUVQ/34If3MsFBERUjeHyJjXXDIIApB4OwOJtzOwdscp8ByHnh2i8e7QzmhYuxJ4npO6ibKjCA1F0L9eQMTkSeADA6VuDvECXhMIxVkFAXGHriDu0BX0aB+NuZP6IiTQX+pmyQKv1SIopj8qzpxB3YfEKeXi07L776to8/I8XLlBuxGHj3sLdU7Ho+LsWRQGxGnl5hNTYDAj5t0fcS7hrtRN8TyOQ4UpH6BO/AlETBgPTqGQukXES5WbQACAvHwj3pi1HgUGs9RN8QhOqUSF6VNR5/hRhI0aCUVoqNRNIl6uXAUCAKSk5WL851ukbobbBcX0Q52TxxE2fDgU4eFSN4eUE+UuEADgz6MJbhsnIReaVq3ABwVJ3QxSzkjWy6DgeVgFAYIbdg4qMJoxa3Ec5r/fT9Ry9QUm5DzIxwO9AQUGEwxGMyxWAVarAJ7noOB5qFUKaDVqaDVqhAZpoPH33cFUeflGZOXokZOXD12+CTq9AXl6I/INJgACVEoFArV+CArwh1ajQnCgP8KDAxDsZb1F+QYT7tzPQUa2DhnZOhQYzAjQqBAeHICIUC2iKoVA4+KgOqPJgjv3s5GRrUfWAz3ydAaoVAqEB2sRFqxBlchghAVrRPtdJAkEBc/j+s5pAACT2Yp76bk4fOYGVmw5hoSb6TCZLcx1xB26DKPJArXK9RtseXoDklNzsW3feew4eAmJtzOcLqNu9Qi82LUJBvRohvCQAGg1zk0e2rbvAr78aZ/T9bJqWq8yvpk2wKnXGIxmpGXrsGXPOWzecw7XbqW7VHfViiGI6d4Ug3o1R8XwQAQ4+Z4VN/vbOFy54dqS9ByA1Z8NLfGx1Mw8LPrlEFZuPQ6r1f6BTankMaxvG4wd3AEVwrQO1ZuercMPm4/i23WHSy0bAJ5uVQfTRvdEdI0KUCjYTvo5wYVDdJdhi5hGKj4cCMVdSkrFi+OWwWhiCwUFz+P0xokuHW0MRjNGzVqHAyeTRD2D4TgOfZ5phDnvvoDAAD+HXrNmRzymzP9NtDY4qnXj6tg0b5hDzzVbrJj/8wF8s+Yv0c/4eI7Di10bY857LyDA37VgGDhhBY6fv+1a/TyHpJ3TH/v5pLnbsGHnaTjz23IcMO2Nnhg1oF2pz/t0+Z/4bv0hp7fdbPlEFNZ9+Sr81K4f52V3D6Fh7Yr44aOXmMuxWK24kHjPqdfk6goQO2klGvX9DPtPXBf9wy0IArbuvYBWg+dixIx15aI3ZN7K/Wg+4EssXH3QLZd/VkHAlj/Po8XArzBq9nro8o2i1+EMQQC6Dl+M9U6GQdFrP1nyB0Z/tKHEL7tVEND/vR/x7TrnwwAATl1ORodXFiIlLdf5F/9DdoEAAJ1a1Ubn1uxr9x05c9Ph5+46fAWdhy3CkTM3YbZYmesujcFoxu4jV9HxlQXYdfiKW+tyl9TMPPQZtwzzfz6APL3B7fUZjGbsOnQFXYYtwo6/Lrm9vpLk6Q1oP/RrXL/j/KXjw3b+dRkzF+987OcDJ/yE+ItsG/GmZ+Vh4PgVMFtcO8OWZSBwHIchz7diLudSkmMjF1dtP4kxH29EVo5nNzpJz9bhzU82YcX/HXP6aCOlW3ez8OK45Th71fODwNKy8vDunM1YuvGIR+s1mswYPmMd7jIcfR+2atsJ7D12zfbvmYt24uQF1y5riktOzcHojza69JmSZSAAhTMbWd1LL/uPt33/RcxctBMWN58V2GMyWzBrcRziDl2WpH5nFRhMiHlvBe468N66i9FkwWfL92DT7rMeq3N93BkcPev4GWdZrFYBX6zYC6Aw5Fb/Fi9a2QBw4EQi8nTOn7nJNhDCQwKYy8gvMJX6eHqWDtMW7JAsDIoIAjB69gbmU1F3s1isGDxxJdKy8qRuCswWK96fux3JqTlur+te+gPMWhwnerkXrt3Duat3MXnudlF61h5mNFmwdOPfTr9OtoGg1bD336vK6HJ8Y/YGWQ1gmvjlVlis0oZTaeIvJePM1RSpm2FjMlswYPwKt9/zWf7rUdG/sEWmLdyBP48muKXsJRv/dvpgJ9tAUCnZJ+hUDLO/BkBmjg6nLrPdwBFb/MU7OHAiUepmlMhsseDVae5Z9p3F3bRcp3uTnGG1Ci4daR115or7AtZgMON+pnNnc7INBDFE17K/cOjrH64rc8CHFJZtOip1E0p07upd6CXu8rPnP0t3S90E2cpx8gxYtgukGBgHJgFAFztdl/kGEy5dv89UtlLJY8EH/dGxZW0EavyQl29A/MU7GPPxRhiMro8vOHz6Bm6kZKJW1cIJSyGB/mhQq+Jjz0vNfICsXLbLnXo1KkBhZ82EGpUfnTm5Lu4MU10A0LJhNcwc2wtVI4PBcxzSsvLw9c8HsZPxhuqRszdxL+MBKkfQ3I7inB3gJ9tAcDbZilPwPJrWr1LiY7fuZsPI8KUFgC8nvogXOjey/Ts0SINubetj+uie+HDh7y6XaxUE7DmSgBExbQEAL3Ru9Eg9RT5Z8ge+38TW9bZp3jCEBpU9Dt5ktmDbvvNMdWn8VVj7+dBHxvRHhgdi4dT+eP7NZUi46drQ4iIJN9MoEErg7GAx2V4ypDDePdb4q+wOdV0f5/wos4fxPIce7aJLfOzVPq1RIdSx8er2nBCpP1osScmZyNOzXS6MHtS+xAk+apUSi6bFgGNcEtPVeROOUikVeOapehgR0xajBrRD5yfrQsk4b+BhkWFaDOrVHKMHtceAHs0cnvMgNtmeIfzx91Wm14+MaQulsuQ/2I6DbCPdGtWtjCCt/bkIUZVCkJ6tc7n8yw4OqPKUmylZzGWUdJZTpHZUBNQqJdOl1jUXJp45KjDAD8s/ikW7ZjUf+fmOg5fwzpzNzD0QTepVxuavhz8yES8jR49BE35C4m33Bl1xsjxDSMvKw7JfXb+5FhqkwfhXu5T4WIHBzHz20ahu6XsasC72evtetqxueN5Lf8BcRs2q9hdx4TmO+WibluG+sRFD//XkY2EAAM8/3RCDejdnKjvAX4Vt34x8bFZuREgAlswYxFS2K2QXCIIgYOrXbIOF3h7Sye5j+gL2O+URZQya0rg4K6+IyWxBcpr7B9w46n4GeyD4lTYmhCscrs4i31j6IDQWfZ5pbPexbm3qM5VdrXKo3S0Eqlf2/JJ4sgqE/AITBk1cyTThp1f7aIyIsT+9lOW0tIiyjDES9i5VnHE/XfrRgEVy8tgHb7ljJuTDrG4a0MVxHJ6o/XgvT5GqkWybBdWuZv/Myd9P6fF7CZLcQxAEAfNX7S/8fwDpWXqcv3YXV2+kMR3Be3VogAVT+pd6g8pdI87EJsaXUCysa1N4s2CtX6mXM2qGtQcAIERbei9PkNYf6Vmu349yliSBYBUEzFt1QNQyxw3phLeHPA3/Mv5AVjcfqcRiNMlnrQQ53c/wtLIuZVj3CyvzUsnDG5LJtpfBERyA9i1qYfLr3dCyYZRDr/GSPPCadpLyxesCgeM4VIkMRssnojBqYDu0fMKxICCElM1rAiEwwA8xPZqib9cmaFCrIrQBavCso1mIx0yeux2wMxzMKohzs5ew85pAyNMbsHLrCazcegJA4R3Yft2a4J0hT6NShWBRR40R8a2POy11E4gDvCYQiiswmPHL76ex7vfTCNL6462XO2LM4A5SN4sQr+b1h1UBhaslz1m2B91GfOvxoZ6ElCdeHwgPS7ydjoETfpLdXABCvEW5CgQAyMzRY9j0tbD4cN85Ia6S5B4Cz3OP7AqUbzDj3JUU7D56FfGXkpkXPb2blos5y3Zj+hs9WZtKiE+RJBA4cGjVsNojP+vYohbGxHbAlr3n8f7cbcy7Gv287SQmDevKtK0VIb5GdpcM/bo2waw3ezOXU2A0QyfCzEZCfInsAgEAYnu3RFTFEKYyBEFA/MVkkVpEiG+Q5fk0z3MYHtMWH3+3i6mcpOQMAGzz1Yk4Tm2YKMrS+vawboNOCrkUCIIHdiJsHl3yAqnOSM/03LRRUrogrZ9bA4GIQ7axGhbMvpVbeg4FAiHOkG0gBAbYX8TUUWIsl0aIL5HlPQQA8FOzn17KaZERYp/FasXkudthMLi+LmKT+lVoLosIZBsI9nYUcobJJN+NU8l/CQKw86/LyNM7v315EX2BiQJBBLK9ZBCDnHdSJkSOZBsINBOBEM+TbSAQQjyPAoEQYuNzgeAtqzDa282HEHfyuUDwli9aZFig1E2wEeM9yy9t9qrg/p2diGN8LhDEGD5b1odXjA93raphzGWIJcD/8W3cnXXnnv0dpAUI7JvBeEfOy57PBYJGlA936Rux5jwoYCo/NEiDiFD37+lnNjvWLSvG2crh0zfsPma1Csxb7NE8CXH4XCAEaf2YZ8btP5FY6lkA627J9WtWYHq9ozKyHZvrUa0S+y7Eq347afexM1dTYGZcJSssiH3uC/HBQFDwPLq3ZZsSnZWrR8Ktkld3TknLxc0U+6fHjmgWXZXp9Y6aumCHQ0fm0nYodtStlCyklxBAFosVk7/axlx+zSj5XGJ5M58LBAAYOaAtcxkzF8fhQbGhtmazFSNm/MJ8+tuldd0ynyPG/P8TF27jtWlrsXXfBZy5koLz1+7Z/rt+J8P2vOiakcyTzaxWAa9MWfPI2ZPRZMH8nw8gKTmTqWwAqF8jkrkMIuO5DO7UtH5VqFUKpm3OD59KwrOjlyKmR1NUiQzG3bRcrP4t3uHTcHsiwwLRoUWtMp+n1aiZ6ily6FQSDp1KeuznrRtXty2E66dWIvbZFlj+61Gmui4m3kPHVxaiffOa8PdT4cyVFObLqyL1anjmMqu888lACPBXoW2zWjh4MpGpnDv3s7Fg9UGRWlXo9f5POXSDjHWJOWe99GxL5kAAAJPZggMnr4vQov+qV6MCasqoV8ab+eQlAwD88FEs/GW2IrNapcDg3i0cem50Lc+eIkfXikSnVnU8WqejZo7tTb2OIvHZQFCrFIh9rqXUzXjE5xP6ONzFV8ED3ZLFfTM1BpzMdtzWatRo37ym1M0oN3w2EABg5theeLJxdambAQBo07QG+nRp7PDzK0UEISLUs11tYcEabJr3mihrVYhBqeSx+/sxNAZBRPL4y0pEwfNYPjsWzURY0JVFtUohWPHJy1AqHf9z8DyHpTMHw9MH7CcbVcfnE/tAKfEqx0olj2+nD0RVD99LKe98OhCAwqPeT/87BN3bSbNc+1NNamD3srEu9Rq0algNbZp6/nR5YM9mWPzhQFEWwnVFsNYfC6fEoFeHBpLUX575fCAAQHhIAJbOHIwPRnQXrTuvLBp/FcbGdsCGr16Dxs+14dQ8z2HtZ0PRqVVtkVtXtt4dGmDrwuHo0T7aozf0OrWsjc1fv47nn27owVp9BwXCP5QKHmNjO+D4L+PRt2sThAVr3FJPgL8KXdvUw++LR+GDEd2ZT/kVCh6rPx2KycO7oUpksDiNdFCNKmFYPjsWWxYMR+vG1d3Wa6NSKtCiQRRW/WcIVn82lMYcuJFLf0EFzzONlFM4MJ2WA/toPFem7Wo1aiyY0h8AsHnPOSzdeATJ97ORpze6tEYjx3HQ+KsQEuiPwb1bYMzgDqLMHizurZc64q2XOuLvszexfNMRnEu4iwKDGUazBWazBVarAGux+RdFPQYcB/AcD57noOA5KBQ8grWOj0xs8UQUNs0bBkEAvttwGOt3nkZ6tg76fKNLcxSUCh5ajRoRoVoM6t0cI2LawU/l+o1D/p/fyRWO3EBl+ZyW1WvD+l1ztleIE1yYqysI7Hs38Q40tPgH2FkcnH9DSiIIhbPx9p+4jr/ir+PY+du4ficDBSUsG65Q8KheOQTNG0ShY4va6NEuGuEhGkm66wrfvsL3sKx38rHWcRzTpYAgCLBYBZy+koyjZ2/hfEIKbqZkIy1bB32+AYIAaPzVCNKqUTUyBDWrhKFp/Spo07QG6lSLAMdxot0wZfm8OvIZYvmcllU+63fNke/ZI+1xJRBIIYvFCqtQOJef5zlwHCf53XdCWFAgEEJs6HBGCLGhQCCE2FAgEEJsKBAIITYUCIQQGwoEQogNBQIhxIYCgRBiQ4FACLGhQCCE2FAgEEJsKBAIITYUCIQQGwoEQogNBQIhxIYCgRBiQ4FACLH5f4E/1G6Q4PwTAAAAAElFTkSuQmCC;" vertex="1" parent="1">
          <mxGeometry x="1717.5" y="840" width="203.48" height="90" as="geometry" />
        </mxCell>
        <mxCell id="bKtYVYal6Ob3jZ1PaWuT-15" value="&lt;font color=&quot;#000000&quot;&gt;&lt;b&gt;Both Unwinding and Blanking process are preformed by a single machine which is made by Rotem.&lt;/b&gt;&lt;/font&gt;" style="text;html=1;strokeColor=none;fillColor=none;align=left;verticalAlign=middle;whiteSpace=wrap;rounded=0;fontFamily=Tahoma;fontSize=21;fontColor=#FEFAE0;" vertex="1" parent="1">
          <mxGeometry x="1717.5" y="920" width="375" height="132" as="geometry" />
        </mxCell>
        <mxCell id="bKtYVYal6Ob3jZ1PaWuT-16" value="" style="rounded=1;whiteSpace=wrap;html=1;fontFamily=Tahoma;fontSize=19;fontColor=#FEFAE0;strokeColor=#DDA15E;fillColor=#BC6C25;arcSize=7;" vertex="1" parent="1">
          <mxGeometry x="920" y="1210" width="610" height="200" as="geometry" />
        </mxCell>
        <mxCell id="bKtYVYal6Ob3jZ1PaWuT-17" value="&lt;b&gt;L-Type (Smaller part stamping press)&lt;br&gt;&lt;/b&gt;&lt;br&gt;Tandem press - which can apply a force of 2800 Tons on the workpiece and with rate of 11 strokes/min.&amp;nbsp;&amp;nbsp;&lt;br&gt;Door outer/inner, Engine cradle, Motor compartment rail, Guard are basically made from this press.&amp;nbsp;" style="text;html=1;strokeColor=none;fillColor=none;align=left;verticalAlign=middle;whiteSpace=wrap;rounded=0;fontFamily=Tahoma;fontSize=21;fontColor=#FEFAE0;" vertex="1" parent="1">
          <mxGeometry x="940" y="1232.5" width="570" height="155" as="geometry" />
        </mxCell>
        <mxCell id="bKtYVYal6Ob3jZ1PaWuT-19" value="" style="rounded=1;whiteSpace=wrap;html=1;fontFamily=Tahoma;fontSize=19;fontColor=#FEFAE0;strokeColor=#DDA15E;fillColor=#BC6C25;arcSize=7;" vertex="1" parent="1">
          <mxGeometry x="920" y="1430" width="610" height="210" as="geometry" />
        </mxCell>
        <mxCell id="bKtYVYal6Ob3jZ1PaWuT-20" value="&lt;b&gt;XL-Type (Larger part stamping press)&lt;br&gt;&lt;/b&gt;&lt;br&gt;High Tandem press - which can apply a force of 5400 Tons on the workpiece and with rate of 15 strokes/min. Basically consists of 5 press operations.&amp;nbsp;&amp;nbsp;&lt;br&gt;Car Bonnet, roof, floor, Body side outer(LH/RH), decklid are basically made out of this press.&amp;nbsp;" style="text;html=1;strokeColor=none;fillColor=none;align=left;verticalAlign=middle;whiteSpace=wrap;rounded=0;fontFamily=Tahoma;fontSize=21;fontColor=#FEFAE0;" vertex="1" parent="1">
          <mxGeometry x="940" y="1451.25" width="570" height="167.5" as="geometry" />
        </mxCell>
      </root>
    </mxGraphModel>
  </diagram>
</mxfile>
